<svg version="1.1" id="Layer_1" xmlns="http://www.w3.org/2000/svg" xmlns:xlink="http://www.w3.org/1999/xlink" x="0px" y="0px" width="100px" height="100px" viewBox="0 0 100 100" enable-background="new 0 0 100 100" xml:space="preserve">
           <g>
	            <path fill-rule="evenodd" clip-rule="evenodd" fill="none" stroke="#000000" stroke-miterlimit="10" d="M99.412,46.313V53.1
		          l-9.494,4.198c-0.374,1.959-0.891,3.867-1.538,5.715l6.111,8.357l-3.41,5.878L80.739,76.16c-1.294,1.49-2.697,2.885-4.194,4.174
		          l1.093,10.289l-5.907,3.394l-8.399-6.08c-1.857,0.644-3.775,1.157-5.745,1.53l-4.219,9.445h-6.822l-4.22-9.446
		          c-1.969-0.372-3.888-0.886-5.745-1.529l-8.399,6.08l-5.907-3.394l1.094-10.288c-1.499-1.289-2.902-2.685-4.197-4.175l-10.34,1.088
		          L5.42,71.37l6.111-8.356c-0.647-1.848-1.164-3.757-1.538-5.716L0.5,53.1v-6.787l9.493-4.198c0.375-1.959,0.89-3.869,1.537-5.718
		          l-6.11-8.355l3.411-5.878l10.344,1.088c1.295-1.49,2.695-2.886,4.193-4.174L22.274,8.789l5.907-3.394l8.4,6.08
		          c1.857-0.643,3.775-1.158,5.744-1.529l4.22-9.446h6.822l4.219,9.446c1.97,0.372,3.887,0.887,5.744,1.529l8.4-6.08l5.907,3.394
		          l-1.093,10.289c1.497,1.288,2.896,2.685,4.191,4.174l10.345-1.088l3.41,5.878l-6.109,8.355c0.647,1.849,1.162,3.758,1.537,5.718
		          L99.412,46.313z M49.956,34.424c-8.483,0-15.359,6.842-15.359,15.282c0,8.44,6.876,15.282,15.359,15.282
		          c8.482,0,15.359-6.842,15.359-15.282C65.315,41.266,58.438,34.424,49.956,34.424z"></path>
            </g>
        </svg>